<mxfile host="app.diagrams.net" modified="2024-07-12T09:06:34.742Z" agent="Mozilla/5.0 (Windows NT 10.0; Win64; x64) AppleWebKit/537.36 (KHTML, like Gecko) Chrome/126.0.0.0 Safari/537.36" version="24.6.5" etag="toJ138H5cTM4uXWL1a7l" type="github">
  <diagram name="Page-1" id="_a1UYXvi5fM4tVgpq7Ea">
    <mxGraphModel>
      <root>
        <mxCell id="0" />
        <mxCell id="1" parent="0" />
      </root>
    </mxGraphModel>
  </diagram>
</mxfile>
